<svg width="233" height="45" viewBox="0 0 233 45" fill="none" xmlns="http://www.w3.org/2000/svg">
<g clip-path="url(#clip0_183_492)">
<path fill-rule="evenodd" clip-rule="evenodd" d="M49.87 18.5301C49.87 18.0001 50.1 17.5501 50.55 17.1801C51 16.8101 51.64 16.6201 52.46 16.6201C53.19 16.6201 53.91 16.7601 54.62 17.0401C55.33 17.3201 56.05 17.7201 56.78 18.2501L58.28 16.1401C57.46 15.4901 56.59 14.9901 55.66 14.6501C54.73 14.3101 53.68 14.1401 52.52 14.1401C51.73 14.1401 51.01 14.2501 50.34 14.4701C49.67 14.6901 49.11 15.0001 48.63 15.4101C48.15 15.8201 47.79 16.3101 47.51 16.8701C47.24 17.4401 47.11 18.0701 47.11 18.7701C47.11 19.5101 47.23 20.1401 47.46 20.6501C47.69 21.1701 48.04 21.6001 48.49 21.9701C48.94 22.3301 49.49 22.6401 50.15 22.8801C50.81 23.1201 51.57 23.3401 52.42 23.5401C53.16 23.7201 53.76 23.9001 54.23 24.0601C54.69 24.2301 55.06 24.4001 55.32 24.5901C55.58 24.7801 55.77 24.9901 55.86 25.2101C55.96 25.4401 56.01 25.6901 56.01 25.9801C56.01 26.6001 55.76 27.0901 55.25 27.4601C54.74 27.8201 54.06 28.0101 53.19 28.0101C52.19 28.0101 51.3 27.8301 50.51 27.4801C49.72 27.1201 48.94 26.6101 48.17 25.9501L46.49 27.9501C47.44 28.8101 48.48 29.4501 49.6 29.8701C50.72 30.2901 51.89 30.4901 53.12 30.4901C53.95 30.4901 54.72 30.3801 55.41 30.1701C56.1 29.9601 56.7 29.6501 57.19 29.2401C57.69 28.8301 58.07 28.3301 58.35 27.7401C58.63 27.1501 58.77 26.4801 58.77 25.7201C58.77 25.0501 58.66 24.4801 58.44 23.9801C58.22 23.4901 57.9 23.0601 57.47 22.6901C57.05 22.3201 56.51 22.0001 55.86 21.7501C55.22 21.4901 54.48 21.2601 53.64 21.0501C52.88 20.8701 52.25 20.6901 51.76 20.5301C51.27 20.3601 50.88 20.1801 50.6 19.9801C50.32 19.7801 50.13 19.5701 50.02 19.3401C49.91 19.1101 49.86 18.8401 49.86 18.5201L49.87 18.5301ZM77.4 22.3001C77.4 21.1801 77.2 20.1201 76.79 19.1201C76.38 18.1201 75.81 17.2501 75.09 16.5101C74.36 15.7701 73.49 15.1801 72.48 14.7501C71.47 14.3201 70.35 14.1001 69.12 14.1001C67.89 14.1001 66.77 14.3201 65.76 14.7601C64.75 15.2001 63.87 15.7901 63.13 16.5401C62.39 17.2901 61.81 18.1601 61.4 19.1601C60.99 20.1601 60.79 21.2201 60.79 22.3401C60.79 23.4601 60.99 24.5201 61.4 25.5201C61.81 26.5201 62.38 27.3901 63.1 28.1301C63.83 28.8701 64.7 29.4601 65.71 29.8901C66.72 30.3201 67.84 30.5401 69.07 30.5401C70.3 30.5401 71.42 30.3201 72.43 29.8801C73.44 29.4401 74.32 28.8501 75.06 28.1001C75.8 27.3501 76.38 26.4801 76.79 25.4801C77.2 24.4801 77.4 23.4201 77.4 22.3001ZM74.47 22.3501C74.47 23.1201 74.34 23.8501 74.07 24.5401C73.8 25.2301 73.44 25.8301 72.97 26.3301C72.5 26.8401 71.94 27.2401 71.28 27.5301C70.62 27.8301 69.9 27.9701 69.11 27.9701C68.32 27.9701 67.6 27.8201 66.93 27.5201C66.26 27.2201 65.69 26.8101 65.22 26.2901C64.74 25.7701 64.37 25.1701 64.11 24.4801C63.85 23.7901 63.71 23.0601 63.71 22.2901C63.71 21.5201 63.84 20.7901 64.11 20.1001C64.37 19.4101 64.74 18.8101 65.21 18.3101C65.68 17.8001 66.24 17.4001 66.9 17.1101C67.56 16.8101 68.28 16.6701 69.07 16.6701C69.86 16.6701 70.58 16.8201 71.25 17.1201C71.92 17.4201 72.49 17.8301 72.96 18.3501C73.44 18.8701 73.81 19.4701 74.07 20.1601C74.33 20.8501 74.47 21.5801 74.47 22.3501ZM93.55 14.3801H90.78V23.5301C90.78 25.0001 90.42 26.1001 89.7 26.8501C88.99 27.5901 88 27.9601 86.76 27.9601C85.52 27.9601 84.51 27.5701 83.79 26.8001C83.07 26.0301 82.71 24.9001 82.71 23.4201V14.3701H79.94V23.5201C79.94 24.6701 80.1 25.6801 80.42 26.5501C80.74 27.4201 81.19 28.1501 81.78 28.7401C82.37 29.3301 83.08 29.7701 83.91 30.0701C84.74 30.3701 85.67 30.5101 86.7 30.5101C87.73 30.5101 88.69 30.3601 89.53 30.0701C90.37 29.7701 91.09 29.3301 91.68 28.7301C92.27 28.1301 92.73 27.3901 93.05 26.4901C93.38 25.6001 93.54 24.5601 93.54 23.3801V14.3701L93.55 14.3801ZM110.29 30.2801L106 24.2601C106.56 24.1101 107.07 23.8901 107.53 23.6101C107.99 23.3301 108.39 22.9901 108.72 22.5901C109.05 22.1901 109.31 21.7301 109.5 21.2001C109.69 20.6801 109.78 20.0801 109.78 19.4201C109.78 18.6501 109.64 17.9501 109.37 17.3201C109.1 16.6901 108.71 16.1601 108.2 15.7301C107.69 15.3001 107.07 14.9701 106.34 14.7301C105.61 14.5001 104.78 14.3801 103.88 14.3801H96.79V30.2801H99.56V24.7401H103.07L106.99 30.2801H110.28H110.29ZM106.95 19.5701C106.95 20.3901 106.65 21.0501 106.06 21.5301C105.47 22.0201 104.67 22.2601 103.67 22.2601H99.57V16.9001H103.65C104.7 16.9001 105.51 17.1201 106.09 17.5701C106.67 18.0201 106.96 18.6801 106.96 19.5601L106.95 19.5701ZM126.46 27.7301L124.67 25.9101C123.99 26.5501 123.3 27.0501 122.6 27.4201C121.9 27.7901 121.07 27.9801 120.1 27.9801C119.34 27.9801 118.64 27.8301 118 27.5401C117.36 27.2401 116.8 26.8401 116.33 26.3201C115.86 25.8101 115.5 25.2001 115.24 24.5101C114.98 23.8201 114.85 23.0801 114.85 22.3001C114.85 21.5201 114.98 20.7801 115.24 20.1001C115.5 19.4201 115.86 18.8201 116.33 18.3201C116.8 17.8101 117.36 17.4101 118 17.1201C118.64 16.8201 119.34 16.6801 120.1 16.6801C121.01 16.6801 121.82 16.8601 122.53 17.2201C123.24 17.5801 123.92 18.0601 124.55 18.6501L126.34 16.5801C125.96 16.2201 125.56 15.8801 125.14 15.5801C124.72 15.2801 124.25 15.0201 123.76 14.8001C123.26 14.5801 122.71 14.4101 122.11 14.2901C121.51 14.1701 120.85 14.1101 120.12 14.1101C118.91 14.1101 117.8 14.3301 116.8 14.7601C115.8 15.1901 114.94 15.7801 114.21 16.5301C113.48 17.2801 112.92 18.1501 112.52 19.1501C112.12 20.1501 111.92 21.2201 111.92 22.3501C111.92 23.4801 112.12 24.5801 112.53 25.5701C112.94 26.5701 113.5 27.4401 114.22 28.1701C114.94 28.9001 115.79 29.4801 116.77 29.9101C117.75 30.3301 118.83 30.5501 119.99 30.5501C120.73 30.5501 121.41 30.4901 122.02 30.3601C122.63 30.2301 123.2 30.0401 123.71 29.7901C124.22 29.5401 124.71 29.2401 125.15 28.9001C125.6 28.5601 126.02 28.1701 126.43 27.7301H126.46ZM140.56 14.3801H128.8V30.2801H140.68V27.7601H131.57V23.5101H139.54V20.9901H131.57V16.9001H140.56V14.3801ZM157.05 17.4001V30.2801H158.84V14.3701H157.02L151.23 23.0401L145.44 14.3701H143.62V30.2701H145.37V17.4201L151.16 25.9101H151.25L157.04 17.3901L157.05 17.4001ZM174.24 14.3801H162.75V30.2801H174.35V28.6401H164.54V23.0801H173.21V21.4501H164.54V16.0201H174.24V14.3901V14.3801ZM191.34 22.3101C191.34 21.1901 191.14 20.1401 190.73 19.1801C190.32 18.2101 189.74 17.3701 188.99 16.6601C188.24 15.9501 187.35 15.3901 186.31 14.9901C185.27 14.5901 184.13 14.3901 182.89 14.3901H177.37V30.2901H182.89C184.13 30.2901 185.27 30.0901 186.31 29.6801C187.35 29.2701 188.24 28.7101 188.99 28.0001C189.74 27.2901 190.32 26.4401 190.73 25.4701C191.14 24.4901 191.34 23.4501 191.34 22.3301V22.3101ZM189.48 22.3601C189.48 23.2501 189.33 24.0801 189.01 24.8401C188.7 25.6001 188.26 26.2601 187.69 26.8301C187.12 27.4001 186.43 27.8401 185.61 28.1601C184.79 28.4801 183.88 28.6401 182.88 28.6401H179.16V16.0601H182.88C183.88 16.0601 184.79 16.2201 185.61 16.5501C186.43 16.8801 187.12 17.3201 187.69 17.8901C188.26 18.4601 188.7 19.1301 189.01 19.9001C189.32 20.6701 189.48 21.5001 189.48 22.3801V22.3601ZM194.7 14.3901V30.2901H196.49V14.3701H194.7V14.3901ZM213.55 14.3901H211.76V23.6301C211.76 25.3701 211.33 26.6801 210.47 27.5601C209.61 28.4401 208.44 28.8801 206.97 28.8801C205.5 28.8801 204.25 28.4201 203.39 27.4901C202.53 26.5701 202.11 25.2401 202.11 23.5201V14.3701H200.32V23.6101C200.32 24.7301 200.48 25.7201 200.8 26.5901C201.12 27.4501 201.57 28.1801 202.15 28.7601C202.73 29.3401 203.43 29.7801 204.24 30.0801C205.05 30.3801 205.95 30.5201 206.93 30.5201C207.91 30.5201 208.83 30.3701 209.64 30.0801C210.45 29.7801 211.15 29.3401 211.73 28.7501C212.31 28.1601 212.76 27.4301 213.08 26.5501C213.4 25.6701 213.56 24.6501 213.56 23.4801V14.3701L213.55 14.3901ZM230.63 17.4101V30.2901H232.42V14.3701H230.6L224.81 23.0401L219.02 14.3701H217.2V30.2701H218.95V17.4201L224.74 25.9101H224.83L230.62 17.3901L230.63 17.4101Z" fill="#2E3D78"/>
<path fill-rule="evenodd" clip-rule="evenodd" d="M20.1799 15.8901L22.3199 13.7501C23.4999 12.5701 25.4299 12.5701 26.6099 13.7501C27.7899 14.9301 27.7899 16.8601 26.6099 18.0401L24.4699 20.1801L20.1799 24.4701L15.8899 28.7601L13.7499 30.9001C12.5699 32.0801 10.6399 32.0801 9.45988 30.9001C8.27988 29.7201 8.27988 27.7901 9.45988 26.6101L11.5999 24.4701L15.8899 20.1801L20.1799 15.8901ZM3.02988 15.8901L0.889883 18.0301C-0.290117 19.2101 -0.290117 21.1401 0.889883 22.3201H0.879883C2.05988 23.5001 3.98988 23.5001 5.16988 22.3201L7.30988 20.1801L11.5999 15.8901L15.8899 11.6001L20.1799 7.31012L22.3199 5.17012C23.4999 3.99012 23.4999 2.06012 22.3199 0.880117C21.1399 -0.299883 19.2099 -0.299883 18.0299 0.880117L15.8899 3.02012L11.5999 7.31012L7.30988 11.6001L3.02988 15.8901ZM28.7499 24.4601L24.4599 28.7501L20.1699 33.0401L15.8799 37.3301L13.7399 39.4701C12.5599 40.6501 12.5599 42.5801 13.7399 43.7601C14.9199 44.9401 16.8499 44.9401 18.0299 43.7601L20.1699 41.6201L24.4599 37.3301L28.7499 33.0401L33.0399 28.7501L35.1799 26.6101C36.3599 25.4301 36.3599 23.5001 35.1799 22.3201C33.9999 21.1401 32.0699 21.1401 30.8899 22.3201L28.7499 24.4601Z" fill="#2E3D78"/>
</g>
<defs>
<clipPath id="clip0_183_492">
<rect width="232.43" height="44.64" fill="white"/>
</clipPath>
</defs>
</svg>
